<svg width="100%" height="100%" viewBox="0 0 695 241" version="1.1" xmlns="http://www.w3.org/2000/svg" xmlns:xlink="http://www.w3.org/1999/xlink" xmlns:sketch="http://www.bohemiancoding.com/sketch/ns">
    <g stroke="none" stroke-width="1" fill="none" fill-rule="evenodd" sketch:type="MSPage">
        <path d="M226,12 L226,228 L13,228 L13,12 L226,12 L226,12 Z M238,0 L225.798,0 L12.183,0 L0,0 L0,11.707 L0,228.373 L0,241 L12.183,241 L225.798,241 L238,241 L238,228.373 L238,11.707 L238,0 L238,0 Z" fill="#82D8D8" sketch:type="MSShapeGroup"></path>
        <path d="M101,161 L101,63.271 L101,57 L94.093,57 L83.42,57 L73,57 L73,61.82 L73,63.271 L73,167.332 L73,174.642 L73,177.598 L73,182 L83.42,182 L94.627,182 L121.842,182 L128,182 L128,174.642 L128,167.871 L128,161 L121.842,161 L101,161 Z" fill="#FFFFFF" sketch:type="MSShapeGroup"></path>
        <path d="M182.637,94 L168,94 L168,83.71 L168,79 L166.079,79 L164.564,79 L155.279,79 L150.87,79 L144,79 L144,83.71 L144,94 L134.849,94 L128,94 L128,103.096 L128,110.238 L128,118 L134.849,118 L144,118 L144,130.67 L144,133 L150.87,133 L155.279,133 L164.564,133 L166.079,133 L168,133 L168,130.67 L168,118 L182.637,118 L183,118 L183,110.238 L183,103.096 L183,94 L182.637,94 Z" fill="#82D8D8" sketch:type="MSShapeGroup"></path>
        <path d="M499.688,37 L492,37 L492,44.644 L492,116.867 L472,103.27 L472,44.644 L472,37 L465.686,37 L456.814,37 L449,37 L449,44.644 L449,111.265 L449,113.836 L452.261,115.438 L496.2,146.252 L498.277,149 L500.133,149 L508.561,149 L512,149 L512,140.486 L512,44.644 L512,37 L508.561,37 L499.688,37 Z" fill="#FFFFFF" sketch:type="MSShapeGroup"></path>
        <path d="M345,126 L345,44.644 L345,37 L343.267,37 L334.395,37 L327,37 L327,43.438 L327,44.644 L327,131.164 L327,137.24 L327,139.699 L327,146 L334.395,146 L343.712,146 L366.34,146 L370,146 L370,137.24 L370,131.61 L370,126 L366.34,126 L345,126 Z" fill="#FFFFFF" sketch:type="MSShapeGroup"></path>
        <path d="M613,126 L613,44.644 L613,37 L607.916,37 L599.044,37 L592,37 L592,43.438 L592,44.644 L592,131.164 L592,137.24 L592,139.699 L592,146 L599.044,146 L608.361,146 L630.988,146 L635,146 L635,137.24 L635,131.61 L635,126 L630.988,126 L613,126 Z" fill="#FFFFFF" sketch:type="MSShapeGroup"></path>
        <path d="M531,37 L531,146 L575,146 L575,126 L548,126 L548,96 L568,96 L568,79 L548,79 L548,59 L575,59 L575,37 L531,37 Z" fill="#FFFFFF" sketch:type="MSShapeGroup"></path>
        <path d="M403.58,37 L394.26,37 L390,37 L390,44.644 L390,53.072 L390,92.121 L390,100.997 L390,131.164 L390,137.24 L390,146 L394.26,146 L403.58,146 L429.451,146 L435,146 L435,137.24 L435,131.61 L435,126 L429.451,126 L409,126 L409,96 L422.96,96 L429,96 L429,88.457 L429,82.824 L429,79 L422.96,79 L409,79 L409,59 L429.451,59 L432.797,59 L435,59 L435,53.52 L435,44.644 L435,37 L429.451,37 L403.58,37 Z" fill="#FFFFFF" sketch:type="MSShapeGroup"></path>
        <path d="M660.924,65.921 L660.924,86.32 C660.924,87.961 660.672,89.484 660.176,90.898 C659.682,92.304 658.928,93.527 657.912,94.559 C656.898,95.595 655.631,96.41 654.105,96.998 C652.579,97.587 650.793,97.884 648.734,97.884 C646.795,97.884 645.082,97.607 643.589,97.052 C642.103,96.5 640.861,95.71 639.86,94.689 C638.858,93.671 638.099,92.446 637.585,91.017 C637.065,89.581 636.808,87.99 636.808,86.238 L636.808,65.921 L643.472,65.921 L643.472,85.74 C643.472,86.904 643.589,87.902 643.816,88.728 C644.048,89.552 644.389,90.23 644.843,90.754 C645.296,91.28 645.861,91.661 646.533,91.905 C647.21,92.151 648.001,92.275 648.909,92.275 C650.792,92.275 652.153,91.729 652.993,90.633 C653.831,89.541 654.257,87.895 654.257,85.694 L654.257,65.92 L660.924,65.92 L660.924,65.921 Z" fill="#82D8D8" sketch:type="MSShapeGroup"></path>
        <path d="M692.012,75.754 C692.012,77.133 691.803,78.457 691.383,79.723 C690.97,80.988 690.283,82.102 689.324,83.065 C688.369,84.029 687.111,84.799 685.553,85.373 C683.991,85.951 682.062,86.239 679.761,86.239 L678.23,86.239 L678.23,97.452 L671.542,97.452 L671.542,65.922 L680.3,65.922 C682.323,65.922 684.077,66.146 685.553,66.599 C687.027,67.054 688.24,67.7 689.197,68.538 C690.152,69.383 690.862,70.412 691.322,71.626 C691.779,72.838 692.012,74.217 692.012,75.754 L692.012,75.754 Z M678.23,80.758 L679.545,80.758 C681.43,80.758 682.847,80.385 683.804,79.638 C684.761,78.888 685.242,77.674 685.242,75.991 C685.242,74.428 684.81,73.268 683.953,72.522 C683.099,71.772 681.758,71.396 679.932,71.396 L678.23,71.396 L678.23,80.758 L678.23,80.758 Z" fill="#82D8D8" sketch:type="MSShapeGroup"></path>
        <path d="M672.522,196.639 L687.589,190.053 L672.522,182.625 L672.522,176.998 L694.832,188.623 L694.832,191.973 L672.522,202.239 L672.522,196.639 L672.522,196.639 Z" fill="#FFFFFF" sketch:type="MSShapeGroup"></path>
        <path d="M349.715,202.238 L327.407,191.972 L327.407,188.622 L349.715,176.997 L349.715,182.624 L334.649,190.052 L349.715,196.638 L349.715,202.238 L349.715,202.238 Z" fill="#FFFFFF" sketch:type="MSShapeGroup"></path>
        <path d="M382.566504,207.7383 L375.475195,207.7383 L375.475195,180.107441 L367.052832,180.107441 L367.052832,174.186542 L390.965918,174.186542 L390.965918,180.107441 L382.566504,180.107441 L382.566504,207.7383 Z M426.957226,174.186542 L426.957226,195.896503 C426.957226,197.640652 426.693313,199.262381 426.165478,200.761737 C425.637644,202.261094 424.834429,203.561537 423.75581,204.663105 C422.677192,205.764673 421.327026,206.629085 419.705273,207.256366 C418.08352,207.883648 416.178754,208.197284 413.990918,208.197284 C411.925478,208.197284 410.101033,207.902772 408.517529,207.313739 C406.934025,206.724707 405.610633,205.887068 404.547314,204.8008 C403.483995,203.714532 402.676956,202.410264 402.126172,200.887958 C401.575388,199.365652 401.3,197.671252 401.3,195.804706 L401.3,174.186542 L408.391308,174.186542 L408.391308,195.276874 C408.391308,196.516138 408.513703,197.575617 408.758496,198.455341 C409.003289,199.335065 409.366648,200.054134 409.848584,200.612568 C410.33052,201.171001 410.931018,201.580258 411.650097,201.840351 C412.369176,202.100443 413.210639,202.230487 414.174511,202.230487 C416.178753,202.230487 417.628364,201.649113 418.523388,200.486347 C419.418412,199.323581 419.865918,197.571808 419.865918,195.230976 L419.865918,174.186542 L426.957226,174.186542 Z M452.80498,207.7383 L445.713672,207.7383 L445.713672,180.107441 L437.291308,180.107441 L437.291308,174.186542 L461.204394,174.186542 L461.204394,180.107441 L452.80498,180.107441 L452.80498,207.7383 Z M498.962793,190.916523 C498.962793,193.502148 498.660631,195.858244 498.056299,197.984882 C497.451966,200.11152 496.530182,201.93214 495.290918,203.446796 C494.051654,204.961452 492.487298,206.131851 490.597803,206.958027 C488.708308,207.784203 486.478431,208.197284 483.908105,208.197284 C481.33778,208.197284 479.107903,207.784203 477.218408,206.958027 C475.328913,206.131851 473.768382,204.961452 472.536767,203.446796 C471.305153,201.93214 470.387194,200.107695 469.782861,197.973407 C469.178529,195.839119 468.876367,193.471549 468.876367,190.870624 C468.876367,188.2697 469.178529,185.909779 469.782861,183.79079 C470.387194,181.671802 471.308978,179.862656 472.548242,178.3633 C473.787506,176.863944 475.351862,175.70502 477.241357,174.886493 C479.130852,174.067967 481.368379,173.65871 483.954004,173.65871 C486.524329,173.65871 488.750381,174.067967 490.632226,174.886493 C492.514072,175.70502 494.070778,176.867768 495.302392,178.374775 C496.534007,179.881781 497.451966,181.694751 498.056299,183.813739 C498.660631,185.932728 498.962793,188.300299 498.962793,190.916523 L498.962793,190.916523 Z M476.197168,190.916523 C476.197168,192.675972 476.350161,194.255627 476.656152,195.655536 C476.962143,197.055446 477.432598,198.241143 478.067529,199.212665 C478.702461,200.184187 479.501851,200.930029 480.465723,201.450214 C481.429595,201.970399 482.577044,202.230487 483.908105,202.230487 C485.269766,202.230487 486.436339,201.970399 487.407861,201.450214 C488.379383,200.930029 489.174948,200.184187 489.79458,199.212665 C490.414212,198.241143 490.873192,197.055446 491.171533,195.655536 C491.469874,194.255627 491.619043,192.675972 491.619043,190.916523 C491.619043,189.157074 491.469874,187.577418 491.171533,186.177509 C490.873192,184.7776 490.414212,183.588077 489.79458,182.608905 C489.174948,181.629734 488.383208,180.880067 487.419336,180.359882 C486.455464,179.839697 485.300365,179.579609 483.954004,179.579609 C482.622942,179.579609 481.467843,179.839697 480.488672,180.359882 C479.5095,180.880067 478.702461,181.629734 478.067529,182.608905 C477.432598,183.588077 476.962143,184.7776 476.656152,186.177509 C476.350161,187.577418 476.197168,189.157074 476.197168,190.916523 L476.197168,190.916523 Z M518.407715,189.080585 L520.335449,189.080585 C522.309092,189.080585 523.72428,188.686628 524.581055,187.8987 C525.43783,187.110773 525.866211,185.951849 525.866211,184.421894 C525.866211,182.83074 525.407231,181.69859 524.489258,181.025409 C523.571284,180.352229 522.148447,180.015644 520.220703,180.015644 L518.407715,180.015644 L518.407715,189.080585 Z M518.407715,194.863788 L518.407715,207.7383 L511.293457,207.7383 L511.293457,174.186542 L520.473145,174.186542 C524.77232,174.186542 527.94693,175.016531 529.99707,176.676532 C532.047211,178.336534 533.072266,180.857098 533.072266,184.2383 C533.072266,185.385767 532.919272,186.426121 532.613281,187.359394 C532.30729,188.292667 531.898033,189.122655 531.385498,189.849384 C530.872963,190.576113 530.283939,191.211035 529.618408,191.754169 C528.952878,192.297303 528.252933,192.752458 527.518555,193.119648 C529.216805,195.842969 530.739088,198.275561 532.085449,200.417499 C532.666832,201.335473 533.229083,202.230483 533.772217,203.102558 C534.315351,203.974632 534.801105,204.754898 535.229492,205.443378 C535.65788,206.131858 536.009764,206.682634 536.285156,207.095722 L536.675293,207.7383 L528.780762,207.7383 L521.505859,194.863788 L518.407715,194.863788 Z M558.851172,207.7383 L543.589942,207.7383 L543.589942,203.699237 L547.674902,201.817402 L547.674902,180.107441 L543.589942,178.225605 L543.589942,174.186542 L558.851172,174.186542 L558.851172,178.225605 L554.766211,180.107441 L554.766211,201.817402 L558.851172,203.699237 L558.851172,207.7383 Z M589.128125,207.7383 L586.833203,199.751972 L575.266797,199.751972 L572.948926,207.7383 L565.765821,207.7383 L576.666699,174.048847 L585.364453,174.048847 L596.311231,207.7383 L589.128125,207.7383 Z M585.18086,193.785175 L583.023633,186.441425 C582.931836,186.166033 582.794142,185.714703 582.610547,185.087421 C582.426952,184.460139 582.231886,183.767845 582.025342,183.010517 C581.818798,182.253189 581.623732,181.492047 581.440137,180.72707 C581.256542,179.962092 581.126498,179.31187 581.05,178.776386 C580.988802,179.112976 580.908481,179.510759 580.809033,179.969745 C580.709586,180.428732 580.594841,180.914486 580.464795,181.427021 C580.334749,181.939556 580.20088,182.455908 580.063184,182.976093 C579.925488,183.496278 579.795444,183.985856 579.673047,184.444843 C579.550651,184.90383 579.439731,185.309262 579.340283,185.661152 C579.240836,186.013041 579.168164,186.27313 579.122266,186.441425 L576.987988,193.785175 L585.18086,193.785175 Z M605.933887,207.7383 L605.933887,174.186542 L613.048145,174.186542 L613.048145,201.8633 L625.257129,201.8633 L625.257129,207.7383 L605.933887,207.7383 Z M654.868555,198.420917 C654.868555,199.920274 654.612291,201.270439 654.099756,202.471454 C653.587221,203.672469 652.837554,204.697524 651.850733,205.54665 C650.863911,206.395775 649.655265,207.049821 648.224756,207.508808 C646.794248,207.967794 645.153395,208.197284 643.302149,208.197284 C641.680396,208.197284 640.11604,208.028992 638.609034,207.692402 C637.102027,207.355811 635.705964,206.850934 634.420801,206.177753 L634.420801,199.568378 C635.15518,199.920268 635.897197,200.260678 636.646875,200.589618 C637.396554,200.918559 638.157695,201.213071 638.930323,201.473163 C639.70295,201.733256 640.475566,201.939797 641.248194,202.092792 C642.020821,202.245788 642.789612,202.322284 643.55459,202.322284 C644.334868,202.322284 645.004213,202.234313 645.562647,202.058368 C646.121081,201.882423 646.572411,201.637634 646.916651,201.323993 C647.260891,201.010352 647.51333,200.635519 647.673975,200.199482 C647.83462,199.763444 647.914942,199.28534 647.914942,198.765155 C647.914942,198.137874 647.781073,197.583273 647.51333,197.101337 C647.245588,196.619401 646.870755,196.168071 646.388819,195.747333 C645.906883,195.326595 645.325508,194.917338 644.644678,194.51955 C643.963848,194.121762 643.202706,193.70103 642.361231,193.257343 C641.657451,192.890154 640.869536,192.446473 639.997461,191.926288 C639.125387,191.406103 638.303048,190.759707 637.53042,189.987079 C636.757793,189.214452 636.111396,188.281193 635.591211,187.187275 C635.071026,186.093356 634.810938,184.781439 634.810938,183.251484 C634.810938,181.752127 635.059552,180.409611 635.556787,179.223896 C636.054023,178.03818 636.761617,177.036074 637.67959,176.217548 C638.597564,175.399022 639.71059,174.775574 641.018702,174.347187 C642.326814,173.918799 643.791724,173.704609 645.413477,173.704609 C646.224353,173.704609 647.016094,173.758156 647.788721,173.865253 C648.561349,173.97235 649.326315,174.125343 650.083643,174.324237 C650.840971,174.523132 651.602112,174.767921 652.36709,175.058612 C653.132068,175.349304 653.919983,175.685889 654.73086,176.068378 L652.435938,181.59914 C651.747458,181.277849 651.104886,180.994812 650.508204,180.750019 C649.911521,180.505226 649.330146,180.298685 648.764063,180.13039 C648.197979,179.962095 647.643379,179.835875 647.100245,179.751728 C646.55711,179.66758 646.010159,179.625507 645.459375,179.625507 C644.26601,179.625507 643.351875,179.942968 642.716944,180.5779 C642.082012,181.212831 641.764551,182.058119 641.764551,183.113788 C641.764551,183.679872 641.860172,184.180925 642.051416,184.616962 C642.242661,185.052999 642.548647,185.462256 642.969385,185.844745 C643.390123,186.227234 643.933249,186.617367 644.59878,187.015155 C645.26431,187.412944 646.07135,187.864274 647.019922,188.369159 C648.167389,188.981142 649.223042,189.604589 650.186914,190.239521 C651.150786,190.874452 651.980775,191.578221 652.676905,192.350849 C653.373034,193.123476 653.912336,193.999363 654.294825,194.978534 C654.677313,195.957706 654.868555,197.105155 654.868555,198.420917 L654.868555,198.420917 Z" fill="#FFFFFF" sketch:type="MSShapeGroup"></path>
    </g>
</svg>